<svg
  id="appleLogotype"
  xmlns="http://www.w3.org/2000/svg"
  viewBox="0 0 50 50"
  fill="none"
>
  <path
    fill="#131313"
    d="M34.944.025c-.107-.119-3.935.047-7.266 3.663-3.331 3.612-2.819 7.756-2.744 7.862.075.106 4.75.272 7.735-3.931 2.984-4.203 2.38-7.472 2.275-7.594ZM45.3 36.691c-.15-.3-7.266-3.857-6.603-10.694.662-6.84 5.234-8.716 5.306-8.919.072-.203-1.866-2.469-3.919-3.615a11.537 11.537 0 0 0-4.884-1.357c-.338-.01-1.51-.297-3.919.363-1.587.434-5.166 1.84-6.15 1.897-.988.056-3.925-1.632-7.084-2.079-2.022-.39-4.166.41-5.7 1.025-1.532.613-4.444 2.357-6.482 6.991-2.037 4.631-.971 11.969-.209 14.25.763 2.278 1.953 6.013 3.978 8.738 1.8 3.075 4.188 5.209 5.184 5.934.997.725 3.81 1.206 5.76.21 1.569-.963 4.4-1.516 5.519-1.476 1.115.041 3.315.482 5.568 1.685 1.785.615 3.472.36 5.163-.328 1.69-.691 4.137-3.31 6.994-8.62 1.084-2.468 1.578-3.802 1.478-4.005Z"
  ></path>
  <path
    fill="#131313"
    d="M34.944.025c-.107-.119-3.935.047-7.266 3.663-3.331 3.612-2.819 7.756-2.744 7.862.075.106 4.75.272 7.735-3.931 2.984-4.203 2.38-7.472 2.275-7.594ZM45.3 36.691c-.15-.3-7.266-3.857-6.603-10.694.662-6.84 5.234-8.716 5.306-8.919.072-.203-1.866-2.469-3.919-3.615a11.537 11.537 0 0 0-4.884-1.357c-.338-.01-1.51-.297-3.919.363-1.587.434-5.166 1.84-6.15 1.897-.988.056-3.925-1.632-7.084-2.079-2.022-.39-4.166.41-5.7 1.025-1.532.613-4.444 2.357-6.482 6.991-2.037 4.631-.971 11.969-.209 14.25.763 2.278 1.953 6.013 3.978 8.738 1.8 3.075 4.188 5.209 5.184 5.934.997.725 3.81 1.206 5.76.21 1.569-.963 4.4-1.516 5.519-1.476 1.115.041 3.315.482 5.568 1.685 1.785.615 3.472.36 5.163-.328 1.69-.691 4.137-3.31 6.994-8.62 1.084-2.468 1.578-3.802 1.478-4.005Z"
  ></path>
</svg>