<svg
  id="behanceLogotype"
  xmlns="http://www.w3.org/2000/svg"
  viewBox="0 0 51 50"
>
  <rect x="0.5" width="50" height="50" rx="15" fill="#1769FF"></rect>
  <path
    d="M19.5172 14.8125C20.4104 14.8125 21.2356 14.8806 21.9927 15.0847C22.7498 15.2208 23.3708 15.5016 23.9238 15.8418C24.4767 16.1821 24.885 16.667 25.1657 17.288C25.438 17.909 25.5826 18.6661 25.5826 19.4912C25.5826 20.4525 25.3784 21.2777 24.8935 21.8987C24.4767 22.5197 23.7961 23.0726 22.9625 23.4809C24.1364 23.8212 25.0296 24.4422 25.5741 25.2674C26.1185 26.0925 26.4673 27.1219 26.4673 28.2958C26.4673 29.2571 26.2631 30.0822 25.9143 30.7713C25.5741 31.4603 25.0211 32.0813 24.4001 32.4897C23.7791 32.9065 23.022 33.2468 22.1969 33.4509C21.3717 33.6551 20.5465 33.7912 19.7214 33.7912L10.5 33.8082V14.8125H19.5172ZM18.9643 22.5197C19.7214 22.5197 20.3424 22.3155 20.8188 21.9667C21.2951 21.6179 21.5078 21.0055 21.5078 20.2484C21.5078 19.8315 21.4398 19.4232 21.3037 19.151C21.1675 18.8788 20.9634 18.6661 20.6827 18.4619C20.4104 18.3258 20.1297 18.1897 19.7894 18.1216C19.4492 18.0536 19.1004 18.0536 18.6921 18.0536H14.7024V22.5282C14.7024 22.5197 18.9643 22.5197 18.9643 22.5197ZM19.1684 30.6437C19.5853 30.6437 19.9936 30.5756 20.3424 30.5076C20.6827 30.4395 21.0314 30.3034 21.3037 30.0907C21.5759 29.8781 21.7885 29.6739 21.9927 29.3336C22.1288 28.9934 22.2649 28.5765 22.2649 28.0916C22.2649 27.1304 21.9927 26.4413 21.4398 25.9564C20.8868 25.5396 20.1297 25.3354 19.2365 25.3354H14.7024V30.6352H19.1684V30.6437Z"
    fill="white"
  ></path>
  <path
    d="M32.4561 30.5756C33.009 31.1286 33.8342 31.4008 34.9316 31.4008C35.6887 31.4008 36.3777 31.1966 36.9307 30.8478C37.4836 30.431 37.8239 30.0227 37.96 29.6058H41.3287C40.7757 31.2562 39.9506 32.4301 38.8532 33.1872C37.7558 33.8763 36.4458 34.2846 34.8635 34.2846C33.7661 34.2846 32.7964 34.0804 31.9031 33.7317C31.0099 33.3914 30.3209 32.9065 29.6999 32.2174C29.0789 31.5964 28.6025 30.8393 28.3218 29.9461C27.9815 29.0529 27.8369 28.0916 27.8369 26.9858C27.8369 25.9564 27.973 24.9866 28.3218 24.0934C28.6706 23.2002 29.1469 22.4431 29.7679 21.7541C30.3889 21.1331 31.146 20.5801 31.9712 20.2398C32.8644 19.8996 33.7576 19.6869 34.8635 19.6869C36.0374 19.6869 37.0668 19.8911 37.96 20.376C38.8532 20.8608 39.5423 21.4053 40.0952 22.2304C40.6481 22.9875 41.0565 23.8808 41.3372 24.842C41.4733 25.8033 41.5414 26.7731 41.4733 27.8705H31.4948C31.4948 28.9934 31.9031 30.0227 32.4561 30.5756ZM36.7946 23.3448C36.3097 22.8599 35.5526 22.5877 34.6593 22.5877C34.0383 22.5877 33.562 22.7238 33.1451 22.928C32.7283 23.1322 32.4561 23.4129 32.1839 23.6851C31.9116 23.9573 31.767 24.3061 31.699 24.6464C31.6309 24.9866 31.5629 25.2674 31.5629 25.5396H37.7558C37.6197 24.5188 37.2709 23.8297 36.7946 23.3448ZM30.7377 16.1226H38.4449V17.977H30.7377V16.1226Z"
    fill="white"
  ></path>
</svg>