<svg
  id="pinterestLogotype"
  xmlns="http://www.w3.org/2000/svg"
  viewBox="0 0 51 50"
>
  <path
    d="M25.4999 0C11.6929 0 0.5 11.1929 0.5 24.9999C0.5 35.5911 7.08954 44.6452 16.3893 48.2878C16.1708 46.3098 15.9733 43.2678 16.476 41.1085C16.9303 39.1573 19.4075 28.6819 19.4075 28.6819C19.4075 28.6819 18.6597 27.1843 18.6597 24.9702C18.6597 21.4939 20.6746 18.8987 23.1834 18.8987C25.3163 18.8987 26.3465 20.5 26.3465 22.4202C26.3465 24.5652 24.9808 27.7722 24.2761 30.7441C23.6871 33.2324 25.5239 35.2616 27.9781 35.2616C32.4214 35.2616 35.837 30.5765 35.837 23.8136C35.837 17.8277 31.5359 13.6426 25.3944 13.6426C18.281 13.6426 14.1058 18.978 14.1058 24.4919C14.1058 26.6406 14.9335 28.9446 15.9663 30.1971C16.1706 30.4447 16.2006 30.6615 16.1397 30.9142C15.9499 31.7038 15.5282 33.4018 15.4454 33.7494C15.3364 34.207 15.0831 34.3042 14.6093 34.0837C11.4869 32.6303 9.53478 28.0653 9.53478 24.3986C9.53478 16.5125 15.2646 9.27004 26.0532 9.27004C34.7257 9.27004 41.4652 15.4499 41.4652 23.7088C41.4652 32.3247 36.0327 39.2588 28.4925 39.2588C25.9591 39.2588 23.5776 37.9427 22.7624 36.3881C22.7624 36.3881 21.5089 41.1613 21.205 42.3311C20.6406 44.5025 19.1169 47.2244 18.0978 48.885C20.4369 49.6092 22.9227 49.9998 25.4999 49.9998C39.3071 49.9998 50.5 38.8069 50.5 24.9999C50.5 11.1929 39.3071 0 25.4999 0Z"
    fill="#F0002A"
  ></path>
</svg>