<svg id="slackLogotype" xmlns="http://www.w3.org/2000/svg" viewBox="0 0 51 50">
  <rect x="0.5" width="50" height="50" rx="15" fill="#4A154B"></rect>
  <path
    d="M17.5928 28.3257C17.5928 30.0024 16.2231 31.3722 14.5464 31.3722C12.8697 31.3722 11.5 30.0024 11.5 28.3257C11.5 26.649 12.8697 25.2793 14.5464 25.2793H17.5928V28.3257Z"
    fill="white"
  ></path>
  <path
    d="M19.1279 28.3257C19.1279 26.649 20.4976 25.2793 22.1743 25.2793C23.851 25.2793 25.2207 26.649 25.2207 28.3257V35.9536C25.2207 37.6303 23.851 39 22.1743 39C20.4976 39 19.1279 37.6303 19.1279 35.9536V28.3257Z"
    fill="white"
  ></path>
  <path
    d="M22.1743 16.0928C20.4976 16.0928 19.1279 14.7231 19.1279 13.0464C19.1279 11.3697 20.4976 10 22.1743 10C23.851 10 25.2207 11.3697 25.2207 13.0464V16.0928H22.1743Z"
    fill="white"
  ></path>
  <path
    d="M22.1743 17.6279C23.851 17.6279 25.2207 18.9976 25.2207 20.6743C25.2207 22.351 23.851 23.7207 22.1743 23.7207H14.5464C12.8697 23.7207 11.5 22.351 11.5 20.6743C11.5 18.9976 12.8697 17.6279 14.5464 17.6279H22.1743Z"
    fill="white"
  ></path>
  <path
    d="M34.4072 20.6743C34.4072 18.9976 35.7769 17.6279 37.4536 17.6279C39.1303 17.6279 40.5001 18.9976 40.5001 20.6743C40.5001 22.351 39.1303 23.7207 37.4536 23.7207H34.4072V20.6743Z"
    fill="white"
  ></path>
  <path
    d="M32.8721 20.6743C32.8721 22.351 31.5024 23.7207 29.8257 23.7207C28.149 23.7207 26.7793 22.351 26.7793 20.6743V13.0464C26.7793 11.3697 28.149 10 29.8257 10C31.5024 10 32.8721 11.3697 32.8721 13.0464V20.6743Z"
    fill="white"
  ></path>
  <path
    d="M29.8258 32.9072C31.5025 32.9072 32.8722 34.2769 32.8722 35.9536C32.8722 37.6303 31.5025 39 29.8258 39C28.1491 39 26.7794 37.6303 26.7794 35.9536V32.9072H29.8258Z"
    fill="white"
  ></path>
  <path
    d="M29.8257 31.3722C28.149 31.3722 26.7793 30.0024 26.7793 28.3257C26.7793 26.649 28.149 25.2793 29.8257 25.2793H37.4536C39.1303 25.2793 40.5 26.649 40.5 28.3257C40.5 30.0024 39.1303 31.3722 37.4536 31.3722H29.8257Z"
    fill="white"
  ></path>
</svg>