<svg
  id="spotifyLogotype"
  xmlns="http://www.w3.org/2000/svg"
  viewBox="0 0 51 50"
>
  <path
    d="M25.4999 0C11.6931 0 0.5 11.1928 0.5 24.9996C0.5 38.8069 11.6931 49.9988 25.4999 49.9988C39.3081 49.9988 50.5 38.8069 50.5 24.9996C50.5 11.1937 39.3081 0.00119412 25.4996 0.00119412L25.4999 0ZM36.9646 36.0565C36.5168 36.7909 35.5556 37.0238 34.8212 36.573C28.9515 32.9876 21.5622 32.1756 12.8601 34.1638C12.0215 34.3549 11.1856 33.8295 10.9945 32.9906C10.8026 32.1517 11.3259 31.3159 12.1666 31.1248C21.6897 28.9491 29.8584 29.8859 36.4482 33.9131C37.1825 34.3639 37.4154 35.3221 36.9646 36.0565ZM40.0246 29.2494C39.4603 30.1665 38.2602 30.4561 37.3438 29.8919C30.6238 25.7614 20.3804 24.5652 12.432 26.9779C11.4011 27.2893 10.3124 26.7083 9.99954 25.6793C9.68907 24.6485 10.2703 23.5618 11.2993 23.2484C20.3786 20.4935 31.6657 21.828 39.3827 26.5701C40.2992 27.1343 40.5888 28.3341 40.0246 29.2494ZM40.2873 22.1611C32.2299 17.3754 18.9364 16.9353 11.2435 19.2702C10.0082 19.6448 8.70183 18.9474 8.32747 17.7121C7.95312 16.4762 8.64989 15.1707 9.8861 14.7952C18.7169 12.1144 33.3972 12.6323 42.6737 18.1393C43.7872 18.7988 44.1514 20.2338 43.4917 21.3434C42.8349 22.4546 41.396 22.8209 40.2885 22.1611H40.2873Z"
    fill="#1DB954"
  ></path>
</svg>