<svg id="vimeoLogotype" xmlns="http://www.w3.org/2000/svg" viewBox="0 0 50 50">
  <rect width="50" height="50" rx="15" fill="#00ADEF"></rect>
  <path
    d="M40.985 17.1447C40.8468 20.1593 38.7401 24.2881 34.665 29.5309C30.4493 35.012 26.883 37.7525 23.9661 37.7525C22.1574 37.7525 20.6286 36.0844 19.3799 32.748L16.8776 23.5755C15.9482 20.2392 14.9521 18.571 13.8892 18.571C13.6604 18.571 12.849 19.0607 11.4585 20.033L10 18.1528C11.5299 16.8087 13.0373 15.4646 14.5219 14.1206C16.5642 12.3595 18.0966 11.4313 19.1189 11.3359C21.5282 11.0976 23.0129 12.7467 23.5729 16.2832C24.1735 20.0962 24.5905 22.4638 24.824 23.3861C25.5223 26.546 26.2885 28.1248 27.1225 28.1225C27.7684 28.1225 28.7419 27.0977 30.043 25.0483C31.3442 22.9988 32.0401 21.4391 32.1306 20.3691C32.3165 18.6008 31.6206 17.7155 30.043 17.7131C29.2516 17.7254 28.4709 17.8981 27.7481 18.2207C29.2757 13.2353 32.1866 10.8093 36.481 10.9427C39.6672 11.0404 41.1685 13.1078 40.985 17.1447Z"
    fill="white"
  ></path>
</svg>