<svg id="xboxLogotype" xmlns="http://www.w3.org/2000/svg" viewBox="0 0 50 50">
  <path
    d="M22.5069 49.8972C18.6555 49.5285 14.7562 48.1461 11.4065 45.9618C8.59951 44.1315 7.96564 43.3791 7.96564 41.8775C7.96564 38.8612 11.2839 33.5784 16.9611 27.556C20.1854 24.1357 24.6766 20.1266 25.1623 20.2351C26.1064 20.4461 33.6553 27.8055 36.4813 31.2699C40.9501 36.7482 43.0045 41.2338 41.9608 43.2336C41.1674 44.7538 36.2444 47.7249 32.6276 48.8664C29.6467 49.8071 25.7318 50.2059 22.5069 49.8972ZM4.17454 38.7415C1.84203 35.165 0.663575 31.6441 0.0946069 26.5516C-0.0932677 24.8701 -0.0259432 23.9083 0.521221 20.4568C1.20318 16.1551 3.65428 11.1786 6.5995 8.11594C7.85389 6.81153 7.96592 6.77975 9.49494 7.29456C11.3517 7.91973 13.3347 9.28846 16.4099 12.0677L18.2042 13.6892L17.2244 14.8922C12.6761 20.4767 7.87481 28.3926 6.06534 33.2899C5.08164 35.9523 4.68487 38.6248 5.10813 39.7374C5.39389 40.4886 5.13141 40.2086 4.17454 38.7415ZM45.1173 39.3497C45.3477 38.2255 45.0563 36.1608 44.3732 34.0783C42.8939 29.5683 37.9495 21.1782 33.4092 15.4738L31.9799 13.678L33.5262 12.259C35.5453 10.4061 36.9471 9.29663 38.4596 8.35444C39.6531 7.61094 41.3587 6.95276 42.0919 6.95276C42.5439 6.95276 44.1352 8.60327 45.4198 10.4045C47.4094 13.1943 48.8731 16.5761 49.6146 20.0965C50.0938 22.3712 50.1337 27.2403 49.6918 29.5094C49.3292 31.3715 48.5635 33.787 47.8165 35.4253C47.2568 36.6527 45.8648 39.0367 45.2548 39.8124C44.9411 40.2112 44.9409 40.2104 45.1173 39.3497H45.1173ZM22.9193 6.10113C20.8244 5.03789 17.5927 3.89657 15.8074 3.58951C15.1816 3.48186 14.1139 3.42183 13.4349 3.4561C11.962 3.53044 12.0278 3.45345 14.3907 2.3377C16.3552 1.41009 17.9938 0.864609 20.2183 0.397784C22.7207 -0.127359 27.4243 -0.133522 29.8868 0.385116C32.5466 0.945289 35.6785 2.11016 37.4434 3.19563L37.9679 3.51824L36.7644 3.4575C34.373 3.3368 30.8878 4.30242 27.1459 6.12241C26.0173 6.67137 25.0354 7.1098 24.9639 7.09671C24.8925 7.08362 23.9724 6.63561 22.9193 6.10113V6.10113Z"
    fill="#107C10"
  ></path>
</svg>